<svg xmlns="http://www.w3.org/2000/svg" xmlns:xlink="http://www.w3.org/1999/xlink" viewBox="0 0 2476 2476" id="Instagram">
  <defs>
    <path id="a" d="M825.4 1238c0-227.9 184.7-412.7 412.6-412.7s412.7 184.8 412.7 412.7-184.8 412.7-412.7 412.7-412.6-184.8-412.6-412.7m-223.1 0c0 351.1 284.6 635.7 635.7 635.7s635.7-284.6 635.7-635.7-284.6-635.7-635.7-635.7S602.3 886.9 602.3 1238m1148-660.9c0 82 66.5 148.6 148.6 148.6 82 0 148.6-66.6 148.6-148.6s-66.5-148.5-148.6-148.5-148.6 66.5-148.6 148.5M737.8 2245.7c-120.7-5.5-186.3-25.6-229.9-42.6-57.8-22.5-99-49.3-142.4-92.6-43.3-43.3-70.2-84.5-92.6-142.3-17-43.6-37.1-109.2-42.6-229.9-6-130.5-7.2-169.7-7.2-500.3s1.3-369.7 7.2-500.3c5.5-120.7 25.7-186.2 42.6-229.9 22.5-57.8 49.3-99 92.6-142.4 43.3-43.3 84.5-70.2 142.4-92.6 43.6-17 109.2-37.1 229.9-42.6 130.5-6 169.7-7.2 500.2-7.2 330.6 0 369.7 1.3 500.3 7.2 120.7 5.5 186.2 25.7 229.9 42.6 57.8 22.4 99 49.3 142.4 92.6 43.3 43.3 70.1 84.6 92.6 142.4 17 43.6 37.1 109.2 42.6 229.9 6 130.6 7.2 169.7 7.2 500.3 0 330.5-1.2 369.7-7.2 500.3-5.5 120.7-25.7 186.3-42.6 229.9-22.5 57.8-49.3 99-92.6 142.3s-84.6 70.1-142.4 92.6c-43.6 17-109.2 37.1-229.9 42.6-130.5 6-169.7 7.2-500.3 7.2-330.5 0-369.7-1.2-500.2-7.2M727.6 7.5c-131.8 6-221.8 26.9-300.5 57.5-81.4 31.6-150.4 74-219.3 142.8C139 276.6 96.6 345.6 65 427.1 34.4 505.8 13.5 595.8 7.5 727.6 1.4 859.6 0 901.8 0 1238s1.4 378.4 7.5 510.4c6 131.8 26.9 221.8 57.5 300.5 31.6 81.4 73.9 150.5 142.8 219.3 68.8 68.8 137.8 111.1 219.3 142.8 78.8 30.6 168.7 51.5 300.5 57.5 132.1 6 174.2 7.5 510.4 7.5 336.3 0 378.4-1.4 510.4-7.5 131.8-6 221.8-26.9 300.5-57.5 81.4-31.7 150.4-74 219.3-142.8 68.8-68.8 111.1-137.9 142.8-219.3 30.6-78.7 51.6-168.7 57.5-300.5 6-132.1 7.4-174.2 7.4-510.4s-1.4-378.4-7.4-510.4c-6-131.8-26.9-221.8-57.5-300.5-31.7-81.4-74-150.4-142.8-219.3C2199.4 139 2130.3 96.6 2049 65c-78.8-30.6-168.8-51.6-300.5-57.5-132-6-174.2-7.5-510.4-7.5-336.3 0-378.4 1.4-510.5 7.5" fill="#000000" class="color000000 svgShape"></path>
  </defs>
  <clipPath id="b">
    <use xlink:href="#a" overflow="visible" fill="#000000" class="color000000 svgShape"></use>
  </clipPath>
  <path d="M-5964.9-5964.9H8447.9V8440.9H-5964.9z" clip-path="url(#b)" fill="#000000" class="color000000 svgShape"></path>
  <defs>
    <path id="c" d="M825.4 1238c0-227.9 184.7-412.7 412.6-412.7s412.7 184.8 412.7 412.7-184.8 412.7-412.7 412.7-412.6-184.8-412.6-412.7m-223.1 0c0 351.1 284.6 635.7 635.7 635.7s635.7-284.6 635.7-635.7-284.6-635.7-635.7-635.7S602.3 886.9 602.3 1238m1148-660.9c0 82 66.5 148.6 148.6 148.6 82 0 148.6-66.6 148.6-148.6s-66.5-148.5-148.6-148.5-148.6 66.5-148.6 148.5M737.8 2245.7c-120.7-5.5-186.3-25.6-229.9-42.6-57.8-22.5-99-49.3-142.4-92.6-43.3-43.3-70.2-84.5-92.6-142.3-17-43.6-37.1-109.2-42.6-229.9-6-130.5-7.2-169.7-7.2-500.3s1.3-369.7 7.2-500.3c5.5-120.7 25.7-186.2 42.6-229.9 22.5-57.8 49.3-99 92.6-142.4 43.3-43.3 84.5-70.2 142.4-92.6 43.6-17 109.2-37.1 229.9-42.6 130.5-6 169.7-7.2 500.2-7.2 330.6 0 369.7 1.3 500.3 7.2 120.7 5.5 186.2 25.7 229.9 42.6 57.8 22.4 99 49.3 142.4 92.6 43.3 43.3 70.1 84.6 92.6 142.4 17 43.6 37.1 109.2 42.6 229.9 6 130.6 7.2 169.7 7.2 500.3 0 330.5-1.2 369.7-7.2 500.3-5.5 120.7-25.7 186.3-42.6 229.9-22.5 57.8-49.3 99-92.6 142.3s-84.6 70.1-142.4 92.6c-43.6 17-109.2 37.1-229.9 42.6-130.5 6-169.7 7.2-500.3 7.2-330.5 0-369.7-1.2-500.2-7.2M727.6 7.5c-131.8 6-221.8 26.9-300.5 57.5-81.4 31.6-150.4 74-219.3 142.8C139 276.6 96.6 345.6 65 427.1 34.4 505.8 13.5 595.8 7.5 727.6 1.4 859.6 0 901.8 0 1238s1.4 378.4 7.5 510.4c6 131.8 26.9 221.8 57.5 300.5 31.6 81.4 73.9 150.5 142.8 219.3 68.8 68.8 137.8 111.1 219.3 142.8 78.8 30.6 168.7 51.5 300.5 57.5 132.1 6 174.2 7.5 510.4 7.5 336.3 0 378.4-1.4 510.4-7.5 131.8-6 221.8-26.9 300.5-57.5 81.4-31.7 150.4-74 219.3-142.8 68.8-68.8 111.1-137.9 142.8-219.3 30.6-78.7 51.6-168.7 57.5-300.5 6-132.1 7.4-174.2 7.4-510.4s-1.4-378.4-7.4-510.4c-6-131.8-26.9-221.8-57.5-300.5-31.7-81.4-74-150.4-142.8-219.3C2199.4 139 2130.3 96.6 2049 65c-78.8-30.6-168.8-51.6-300.5-57.5-132-6-174.2-7.5-510.4-7.5-336.3 0-378.4 1.4-510.5 7.5" fill="#000000" class="color000000 svgShape"></path>
  </defs>
  <clipPath id="d">
    <use xlink:href="#c" overflow="visible" fill="#000000" class="color000000 svgShape"></use>
  </clipPath>
  <path fill="#ffffff" d="M-450.2-450.2h3376.4v3376.4H-450.2z" clip-path="url(#d)" class="colorffffff svgShape"></path>
  <defs>
    <path id="e" d="M825.4 1238c0-227.9 184.7-412.7 412.6-412.7s412.7 184.8 412.7 412.7-184.8 412.7-412.7 412.7-412.6-184.8-412.6-412.7m-223.1 0c0 351.1 284.6 635.7 635.7 635.7s635.7-284.6 635.7-635.7-284.6-635.7-635.7-635.7S602.3 886.9 602.3 1238m1148-660.9c0 82 66.5 148.6 148.6 148.6 82 0 148.6-66.6 148.6-148.6s-66.5-148.5-148.6-148.5-148.6 66.5-148.6 148.5M737.8 2245.7c-120.7-5.5-186.3-25.6-229.9-42.6-57.8-22.5-99-49.3-142.4-92.6-43.3-43.3-70.2-84.5-92.6-142.3-17-43.6-37.1-109.2-42.6-229.9-6-130.5-7.2-169.7-7.2-500.3s1.3-369.7 7.2-500.3c5.5-120.7 25.7-186.2 42.6-229.9 22.5-57.8 49.3-99 92.6-142.4 43.3-43.3 84.5-70.2 142.4-92.6 43.6-17 109.2-37.1 229.9-42.6 130.5-6 169.7-7.2 500.2-7.2 330.6 0 369.7 1.3 500.3 7.2 120.7 5.5 186.2 25.7 229.9 42.6 57.8 22.4 99 49.3 142.4 92.6 43.3 43.3 70.1 84.6 92.6 142.4 17 43.6 37.1 109.2 42.6 229.9 6 130.6 7.2 169.7 7.2 500.3 0 330.5-1.2 369.7-7.2 500.3-5.5 120.7-25.7 186.3-42.6 229.9-22.5 57.8-49.3 99-92.6 142.3s-84.6 70.1-142.4 92.6c-43.6 17-109.2 37.1-229.9 42.6-130.5 6-169.7 7.2-500.3 7.2-330.5 0-369.7-1.2-500.2-7.2M727.6 7.5c-131.8 6-221.8 26.9-300.5 57.5-81.4 31.6-150.4 74-219.3 142.8C139 276.6 96.6 345.6 65 427.1 34.4 505.8 13.5 595.8 7.5 727.6 1.4 859.6 0 901.8 0 1238s1.4 378.4 7.5 510.4c6 131.8 26.9 221.8 57.5 300.5 31.6 81.4 73.9 150.5 142.8 219.3 68.8 68.8 137.8 111.1 219.3 142.8 78.8 30.6 168.7 51.5 300.5 57.5 132.1 6 174.2 7.5 510.4 7.5 336.3 0 378.4-1.4 510.4-7.5 131.8-6 221.8-26.9 300.5-57.5 81.4-31.7 150.4-74 219.3-142.8 68.8-68.8 111.1-137.9 142.8-219.3 30.6-78.7 51.6-168.7 57.5-300.5 6-132.1 7.4-174.2 7.4-510.4s-1.4-378.4-7.4-510.4c-6-131.8-26.9-221.8-57.5-300.5-31.7-81.4-74-150.4-142.8-219.3C2199.4 139 2130.3 96.6 2049 65c-78.8-30.6-168.8-51.6-300.5-57.5-132-6-174.2-7.5-510.4-7.5-336.3 0-378.4 1.4-510.5 7.5" fill="#000000" class="color000000 svgShape"></path>
  </defs>
  <clipPath id="f">
    <use xlink:href="#e" overflow="visible" fill="#000000" class="color000000 svgShape"></use>
  </clipPath>
  <g clip-path="url(#f)" fill="#000000" class="color000000 svgShape">
    <defs>
      <path id="g" d="M-5964.9-5964.9H8447.9V8440.9H-5964.9z" fill="#000000" class="color000000 svgShape"></path>
    </defs>
    <clipPath id="h">
      <use xlink:href="#g" overflow="visible" fill="#000000" class="color000000 svgShape"></use>
    </clipPath>
    <g clip-path="url(#h)" fill="#000000" class="color000000 svgShape">
      <defs>
        <path id="i" d="M-5964.9-5964.9H8447.9V8440.9H-5964.9z" fill="#000000" class="color000000 svgShape"></path>
      </defs>
      <clipPath id="j">
        <use xlink:href="#i" overflow="visible" fill="#000000" class="color000000 svgShape"></use>
      </clipPath>
      <path fill="#007bff" d="M-5964.9-5964.9H8440.9V8440.9H-5964.9z" clip-path="url(#j)" class="color204bff svgShape"></path>
      <defs>
        <path id="k" d="M-5964.9-5964.9H8447.9V8440.9H-5964.9z" fill="#000000" class="color000000 svgShape"></path>
      </defs>
      <clipPath id="l">
        <use xlink:href="#k" overflow="visible" fill="#000000" class="color000000 svgShape"></use>
      </clipPath>
      <g clip-path="url(#l)" fill="#000000" class="color000000 svgShape">
        <defs>
          <path id="m" d="M-3791.4-3601.5H8447.9V7174.7H-3791.4z" fill="#000000" class="color000000 svgShape"></path>
        </defs>
        <defs>
          <path id="o" d="M-5964.9-5964.9H8447.9V8440.9H-5964.9z" fill="#000000" class="color000000 svgShape"></path>
        </defs>
        <clipPath id="n">
          <use xlink:href="#m" overflow="visible" fill="#000000" class="color000000 svgShape"></use>
        </clipPath>
        <clipPath id="p" clip-path="url(#n)">
          <use xlink:href="#o" overflow="visible" fill="#000000" class="color000000 svgShape"></use>
        </clipPath>
        <g clip-path="url(#p)" fill="#000000" class="color000000 svgShape">
          <defs>
            <path id="q" d="M-5964.9-5964.9H8447.9V8440.9H-5964.9z" fill="#000000" class="color000000 svgShape"></path>
          </defs>
          <clipPath id="r">
            <use xlink:href="#q" overflow="visible" fill="#000000" class="color000000 svgShape"></use>
          </clipPath>
          <g clip-path="url(#r)" fill="#000000" class="color000000 svgShape">
            <defs>
              <path id="s" d="M-3594.4-844.1h8047v8047h-8047z" fill="#000000" class="color000000 svgShape"></path>
            </defs>
            <defs>
              <path id="u" d="M-5964.9-5964.9H8447.9V8440.9H-5964.9z" fill="#000000" class="color000000 svgShape"></path>
            </defs>
            <clipPath id="t">
              <use xlink:href="#s" overflow="visible" fill="#000000" class="color000000 svgShape"></use>
            </clipPath>
            <clipPath id="v" clip-path="url(#t)">
              <use xlink:href="#u" overflow="visible" fill="#000000" class="color000000 svgShape"></use>
            </clipPath>
            <g clip-path="url(#v)" fill="#000000" class="color000000 svgShape">
              <defs>
                <path id="w" d="M-2469 478.3h6499.5v6499.5H-2469z" fill="#000000" class="color000000 svgShape"></path>
              </defs>
              <defs>
                <path id="y" d="M-5964.9-5964.9H8447.9V8440.9H-5964.9z" fill="#000000" class="color000000 svgShape"></path>
              </defs>
              <clipPath id="x">
                <use xlink:href="#w" overflow="visible" fill="#000000" class="color000000 svgShape"></use>
              </clipPath>
              <clipPath id="z" clip-path="url(#x)">
                <use xlink:href="#y" overflow="visible" fill="#000000" class="color000000 svgShape"></use>
              </clipPath>
              <g clip-path="url(#z)" fill="#000000" class="color000000 svgShape">
                <defs>
                  <path id="A" d="M-5964.9-5964.9H8447.9V8440.9H-5964.9z" fill="#000000" class="color000000 svgShape"></path>
                </defs>
                <clipPath id="B">
                  <use xlink:href="#A" overflow="visible" fill="#000000" class="color000000 svgShape"></use>
                </clipPath>
                <g clip-path="url(#B)" fill="#000000" class="color000000 svgShape">
                  <defs>
                    <path id="C" d="M-5964.9-5964.9H8447.9V8440.9H-5964.9z" fill="#000000" class="color000000 svgShape"></path>
                  </defs>
                  <clipPath id="D">
                    <use xlink:href="#C" overflow="visible" fill="#000000" class="color000000 svgShape"></use>
                  </clipPath>
                  <g clip-path="url(#D)" opacity=".45" fill="#000000" class="color000000 svgShape">
                    <defs>
                      <path id="E" d="M-5760.9-4333H5718.7v5908.6H-5760.9z" opacity=".45" fill="#000000" class="color000000 svgShape"></path>
                    </defs>
                    <clipPath id="F">
                      <use xlink:href="#E" overflow="visible" fill="#000000" class="color000000 svgShape"></use>
                    </clipPath>
                  </g>
                </g>
              </g>
            </g>
          </g>
        </g>
      </g>
    </g>
  </g>
</svg>
