<svg xmlns="http://www.w3.org/2000/svg" xml:space="preserve" viewBox="0 0 512 512" id="location">
  <path d="M417.18 393.698c-25.036-10.001-58.991-17.511-96.755-21.488 48.852-65.902 102.936-149.914 102.936-204.85C423.36 75.077 348.283 0 256 0 163.718 0 88.641 75.077 88.641 167.36c0 33.848 21.286 83.552 63.265 147.731 12.876 19.686 26.598 39.078 39.894 57.095-37.823 3.968-71.836 11.477-96.917 21.486-39.953 15.944-48.34 34.245-48.34 46.79C46.543 486.928 154.46 512 256 512c101.54 0 209.458-25.072 209.458-71.537-.001-12.536-8.377-30.826-48.278-46.765zM104.641 167.36C104.641 83.9 172.54 16 256 16s151.36 67.9 151.36 151.36c0 31.019-20.127 77.537-59.822 138.261-31.46 48.126-67.997 94.129-91.534 123.481-46.94-58.649-151.363-191.95-151.363-261.742zM249.76 446.895a8 8 0 0 0 12.48 0l2.36-2.941a4506.606 4506.606 0 0 0 17.366-21.736c39.759 3.383 55.689 13.105 56.985 16.419-.657 1.58-5.967 6.504-23.082 10.958-16.232 4.224-37.494 6.55-59.869 6.55s-43.636-2.326-59.869-6.55c-17.115-4.454-22.424-9.378-23.081-10.958 1.295-3.316 17.239-13.043 57.032-16.423 7.482 9.48 14.173 17.819 19.678 24.681zm146.285 30.866C358.752 489.522 309.017 496 256 496c-53.017 0-102.752-6.478-140.045-18.239-33.445-10.548-53.412-24.492-53.412-37.298 0-20.391 52.434-45.628 140.455-53.282 5.316 7.037 10.5 13.793 15.462 20.186-24.065 3.007-61.441 10.954-61.441 31.272 0 26.448 62.218 33.505 98.982 33.505s98.982-7.057 98.982-33.505c0-20.293-37.298-28.246-61.343-31.26a1939.375 1939.375 0 0 0 15.541-20.183c87.909 7.673 140.276 32.898 140.276 53.266 0 12.808-19.967 26.751-53.412 37.299zm-54.836-310.595c0-46.984-38.225-85.209-85.209-85.209-46.985 0-85.21 38.225-85.21 85.209 0 46.985 38.225 85.209 85.21 85.209 46.985 0 85.209-38.224 85.209-85.209zM256 236.375c-38.163 0-69.21-31.047-69.21-69.209S217.838 97.957 256 97.957c38.162 0 69.209 31.047 69.209 69.209S294.163 236.375 256 236.375z" fill="#007bff" class="color000000 svgShape"></path>
</svg>
